<svg xmlns="http://www.w3.org/2000/svg" width="390" height="844" viewBox="0 0 390 844">
  <rect width="390" height="844" fill="#0d0f0e"/>
  <rect x="5" y="5" width="380" height="834" fill="#171918" stroke="#4a4c45"/>
  <text x="18" y="27" fill="#b9b4a7" font-family="monospace" font-size="8" letter-spacing="1.3">AIND DRAWN / EXPERIMENT 06</text>
  <text x="18" y="56" fill="#f3ead7" font-family="serif" font-size="27">Paper Circuit</text>
  <line x1="5" y1="69" x2="385" y2="69" stroke="#68675f"/>
  <g font-family="monospace" font-size="9"><text x="18" y="89" fill="#b9b4a7">MEDIUM</text><rect x="18" y="98" width="106" height="35" fill="#202321" stroke="#77776d"/><text x="31" y="120" fill="#f3ead7">Oil</text><text x="137" y="89" fill="#b9b4a7">CAMERA</text><rect x="137" y="98" width="154" height="35" fill="#202321" stroke="#77776d"/><rect x="137" y="98" width="70" height="35" fill="#344235"/><text x="151" y="120" fill="#f3ead7">Follow</text><text x="215" y="120" fill="#b9b4a7">Course</text><rect x="304" y="98" width="67" height="35" fill="#202321" stroke="#77776d"/><text x="319" y="120" fill="#f3ead7">Reset</text></g>
  <rect x="12" y="145" width="366" height="442" fill="#eee4cf" stroke="#6b6459"/>
  <path d="M 96 430 C 48 310 120 215 218 246 C 287 207 344 287 317 390 C 295 475 199 505 96 430 Z" fill="none" stroke="#c2b59c" stroke-width="64"/>
  <path d="M 96 430 C 48 310 120 215 218 246 C 287 207 344 287 317 390 C 295 475 199 505 96 430 Z" fill="none" stroke="#3c3e39" stroke-width="4" stroke-dasharray="9 8"/>
  <rect x="24" y="160" width="150" height="70" fill="#171918" opacity=".94"/><text x="38" y="184" fill="#b9b4a7" font-family="monospace" font-size="8">LAP 1 / 3</text><text x="38" y="214" fill="#f3ead7" font-family="serif" font-size="22">1 / 4</text><text x="109" y="214" fill="#bd4d31" font-family="monospace" font-size="10">00:18.423</text>
  <text x="24" y="570" fill="#344235" font-family="monospace" font-size="9">OIL · FOLLOW · READY</text>
  <text x="18" y="616" fill="#b9b4a7" font-family="monospace" font-size="9" letter-spacing="1.4">TOUCH DRIVE</text>
  <g fill="#202321" stroke="#77776d" font-family="monospace" font-size="18" text-anchor="middle"><rect x="18" y="635" width="76" height="76"/><text x="56" y="681" fill="#f3ead7">←</text><rect x="104" y="635" width="76" height="76"/><text x="142" y="681" fill="#f3ead7">→</text><rect x="210" y="635" width="76" height="76" fill="#344235"/><text x="248" y="681" fill="#f3ead7">GO</text><rect x="296" y="635" width="76" height="76"/><text x="334" y="681" fill="#f3ead7">STOP</text></g>
  <rect x="18" y="729" width="172" height="47" fill="#202321" stroke="#77776d"/><text x="104" y="758" fill="#f3ead7" font-family="monospace" font-size="10" text-anchor="middle">Pause</text><rect x="200" y="729" width="172" height="47" fill="#202321" stroke="#77776d"/><text x="286" y="758" fill="#f3ead7" font-family="monospace" font-size="10" text-anchor="middle">New race</text>
  <text x="18" y="817" fill="#788e68" font-family="monospace" font-size="9">RACE IN PROGRESS</text>
</svg>
